<?xml version="1.0" encoding="utf-8"?>
<!-- Generator: Adobe Illustrator 23.1.0, SVG Export Plug-In . SVG Version: 6.00 Build 0)  -->
<svg version="1.1" id="Layer_1" xmlns="http://www.w3.org/2000/svg" xmlns:xlink="http://www.w3.org/1999/xlink" x="0px" y="0px"
	 viewBox="0 0 150 150" style="enable-background:new 0 0 150 150;" xml:space="preserve">
<style type="text/css">
	.st0{fill:#0072BB;}
</style>
<g>
	<path class="st0" d="M27.3,114.1c-3.5,0.3-6.1-1.7-6.8-5.1c-0.7-3.4,0.8-6.8,4.1-7.3c3.6-0.6,4.6-2.8,5.7-5.6
		c7.9-20.3,16.9-40.2,25.4-60.3c3.4-8,6.2-16.2,9.9-24c0.5-1.1,1.1-2.3,1.8-3.3C68,7.5,69,7.2,70,7.6c1.2,0.4,1.9,1.3,1.8,2.6
		c-0.1,1-0.4,2-0.8,2.9c-9.1,22.3-18.4,44.5-28.3,66.5c-3.2,7.1-6.2,14.3-9.3,21.4c-0.6,1.3-1,2.6-0.2,3.9
		C35.9,108.9,31.8,113.7,27.3,114.1z"/>
	<path class="st0" d="M84.6,133.8c3.9-0.3,7.8-0.6,11.6-0.8c2.1-0.1,3.5-0.5,3.7-3.1c0.1-2.2,1.5-2.9,3.8-2.4
		c2.8,0.7,5.4,1.9,7.9,3.5c1.9,1.2,2.1,2.9,0.4,4.4c-2.1,1.9-4.2,3.9-6.3,5.9c-1.9,1.8-3.6,1.4-4.2-1.1c-0.6-2.6-2-2.7-4.1-2.6
		c-9.5,0.8-19,1.6-28.6,1.4c-8-0.2-16-0.8-23.9-2.6c-1.9-0.4-3.6-0.9-5.1,1c-0.9,1.1-2.3,0.7-3.5,0.1c-2.6-1.4-4.5-3.6-6.1-6
		c-1.1-1.6-0.6-2.7,1.3-3.6c3-1.3,6.1-2.2,9.4-2.4c2.3-0.1,2.9,0.6,2.5,2.9c-0.1,0.4-0.2,0.7-0.3,1.1c-0.4,2.3-0.3,2.6,2,3.1
		c4.2,0.9,8.4,1.2,12.7,1.5C66.8,134.6,75.7,134.7,84.6,133.8z"/>
	<path class="st0" d="M103.1,50.5c0,1.3,0.2,2.5-1.1,3.1c-1.1,0.5-1.9-0.3-2.6-1.1c-2-2.3-3.3-5-4.3-7.8c-0.4-1-0.3-2,0.8-2.6
		c1.1-0.6,2-0.1,2.7,0.6C101.1,44.7,102.3,47.5,103.1,50.5z"/>
	<path class="st0" d="M113.7,68.7c0.1,1.5,0,2.6-1,3.1c-0.9,0.4-1.7-0.1-2.4-0.7c-2.3-2.1-3.7-4.7-4.7-7.6c-0.3-0.9-0.1-1.8,0.7-2.4
		c0.8-0.7,1.7-0.6,2.4,0C111.3,63.2,113.2,65.7,113.7,68.7z"/>
	<path class="st0" d="M124.8,101.3c-0.1-1.4-0.1-2.6,1.1-3.1c1.3-0.6,2.2,0.2,2.9,1.1c1.2,1.6,2.3,3.3,2.9,5.2
		c0.6,1.9,0,3.7-1.4,4.1c-1.8,0.5-2.9-0.4-3.6-1.9C125.7,104.9,125.2,103,124.8,101.3z"/>
	<path class="st0" d="M82.5,15.7c0.1,1.3,0.1,2.2-0.8,2.7c-0.7,0.5-1.5,0.3-2.1-0.1c-2.9-1.7-4.5-4.4-5.3-7.5
		c-0.5-1.8,1.2-3,2.8-2.1C79.9,10.3,81.5,13,82.5,15.7z"/>
	<path class="st0" d="M59.3,115.5c-1.6-0.2-3.8-0.5-6-0.9c-0.9-0.2-1.7-0.6-1.8-1.7c-0.1-1.2,0.8-1.7,1.8-2.1c2.3-0.8,4.6-0.9,7-0.5
		c1.4,0.2,2.7,0.9,2.8,2.6C63.1,114.3,61.9,115.3,59.3,115.5z"/>
	<path class="st0" d="M91.2,111.3c2.6-0.2,4.5-0.3,6.3,0.4c1,0.4,1.8,0.9,1.8,2.1c0,1.2-0.9,1.8-1.9,2.1c-3.2,0.7-6.2,0.1-9.2-0.9
		c-0.8-0.2-1.2-0.9-1.1-1.8c0.1-0.9,0.7-1.3,1.5-1.5C89.6,111.5,90.8,111.4,91.2,111.3z"/>
	<path class="st0" d="M73.6,110.6c1.5-0.1,3,0,4.4,0.5c0.8,0.3,1.5,0.9,1.5,1.9c0,1-0.6,1.6-1.4,2.1c-1.6,0.9-6.9,0.5-8.2-0.7
		c-0.9-0.8-0.9-2,0.2-2.8C70.7,111.1,72.1,110.7,73.6,110.6z"/>
	<path class="st0" d="M92,31.3c0.1,1.2,0.1,2.1-0.7,2.7c-1,0.7-1.9,0.2-2.7-0.4c-1.9-1.5-3.1-3.6-3.8-5.9c-0.2-0.7,0-1.5,0.7-2
		c0.8-0.6,1.7-0.6,2.4-0.1C90,27.1,91.5,29,92,31.3z"/>
	<path class="st0" d="M112.2,111.3c0.7-0.1,1-0.1,1.2-0.1c2.4-0.1,3.8,0.7,3.8,2.1c0,1.3-1.5,2.4-3.6,2.7c-1.7,0.2-3.3,0-4.7-0.8
		c-1.5-0.9-1.5-2.4,0.1-3.2c0.3-0.2,0.7-0.3,1.1-0.3C111,111.4,111.8,111.3,112.2,111.3z"/>
	<path class="st0" d="M123.2,86.1c0.1,1,0.1,1.9-0.7,2.4c-1,0.7-1.9,0.1-2.7-0.6c-1.4-1.3-2.5-2.8-2.9-4.7c-0.2-0.9,0.1-1.8,1-2.2
		c0.7-0.4,1.5-0.2,2.1,0.3C121.7,82.6,122.8,84.2,123.2,86.1z"/>
	<path class="st0" d="M42.9,114.7c-2,0-3.7-0.4-5.1-1.6c-1.3-1.1-0.9-2.7,0.7-3.1c1.6-0.4,3.2-0.4,4.8,0.1c1.1,0.4,2.1,1.1,2,2.4
		C45.3,114.2,44,114.5,42.9,114.7z"/>
</g>
</svg>
