<?xml version="1.0" encoding="utf-8"?>
<!-- Generator: Adobe Illustrator 23.1.0, SVG Export Plug-In . SVG Version: 6.00 Build 0)  -->
<svg version="1.1" id="Layer_1" xmlns="http://www.w3.org/2000/svg" xmlns:xlink="http://www.w3.org/1999/xlink" x="0px" y="0px"
	 viewBox="0 0 150 150" style="enable-background:new 0 0 150 150;" xml:space="preserve">
<style type="text/css">
	.st0{fill:#C49A3B;}
</style>
<g>
	<path class="st0" d="M75.39,147.92c-16.98,0-27.12-36.91-27.12-72.59c0-35.68,10.15-72.59,27.12-72.59
		c16.98,0,27.12,36.91,27.12,72.59C102.51,111.01,92.37,147.92,75.39,147.92z M75.39,7.83c-10.42,0-22.03,27.72-22.03,67.49
		c0,39.78,11.61,67.5,22.03,67.5c10.42,0,22.03-27.72,22.03-67.5C97.42,35.55,85.81,7.83,75.39,7.83z"/>
	<path class="st0" d="M120.86,120.35L120.86,120.35c-15.07,0-37.98-8.43-59.8-21.99C30.77,79.51,4.78,51.41,13.75,36.99
		c1.9-3.05,6.25-6.69,16.18-6.69c15.07,0,37.98,8.43,59.79,21.99c30.3,18.85,56.28,46.96,47.32,61.37
		C135.13,116.72,130.79,120.35,120.86,120.35z M29.92,35.39c-4.19,0-9.65,0.74-11.85,4.29c-5.5,8.85,11.91,33.35,45.68,54.35
		c21.05,13.09,42.94,21.23,57.11,21.23l0,0c4.19,0,9.64-0.74,11.84-4.28c5.5-8.85-11.91-33.35-45.68-54.36
		C65.98,43.52,44.1,35.39,29.92,35.39z"/>
	<path class="st0" d="M29.91,120.35c-9.93,0-14.27-3.64-16.17-6.69C4.78,99.25,30.76,71.14,61.06,52.29
		c21.81-13.57,44.72-21.99,59.79-21.99c9.93,0,14.28,3.64,16.18,6.69C146,51.4,120.01,79.51,89.72,98.36
		C67.9,111.92,44.98,120.35,29.91,120.35z M120.86,35.39c-14.17,0-36.05,8.13-57.1,21.23c-33.78,21.01-51.19,45.51-45.68,54.36
		c2.2,3.54,7.65,4.28,11.84,4.28c14.17,0,36.06-8.13,57.11-21.23c33.77-21.01,51.18-45.51,45.68-54.35
		C130.5,36.13,125.05,35.39,120.86,35.39z"/>
</g>
</svg>
