<?xml version="1.0" encoding="utf-8"?>
<!-- Generator: Adobe Illustrator 23.1.0, SVG Export Plug-In . SVG Version: 6.00 Build 0)  -->
<svg version="1.1" id="Layer_1" xmlns="http://www.w3.org/2000/svg" xmlns:xlink="http://www.w3.org/1999/xlink" x="0px" y="0px"
	 viewBox="0 0 150 150" style="enable-background:new 0 0 150 150;" xml:space="preserve">
<style type="text/css">
	.st0{fill:none;stroke:#C49A3B;stroke-width:3;stroke-miterlimit:10;}
</style>
<path class="st0" d="M23.5,99.9c1.4,1.3,3.4,1.6,5.1,0.9c5.2-2.1,12-3.7,18.5-1.8c2.9-12.3,6.6-22.4,10.2-30.5
	c-3.8,8.8-7.7,20-10.5,33.6l-3.1-2.4l-4.6,6l24.2,18.6l4.6-6l-3.4-2.6c12.8-6.4,22.9-13.3,30.5-19.4c-7,5.8-16.1,12.2-27.6,18.3
	c3.4,5.8,3.6,12.8,3,18.3c-0.2,1.9,0.7,3.7,2.2,4.7c1.6,1,3.6,1,5.2,0c22.9-14.3,21-33.3,18.4-42.4c-0.3,0.3-0.7,0.6-1.1,0.9
	c12.9-10.5,18.6-18.7,18.6-18.7c17.3-22,16.5-46.2,15.1-57.1c-0.2-1.6-1.1-3.1-2.4-4.1s-3-1.4-4.6-1.2c-10.7,1.6-33.8,7.4-50.5,29.7
	c0,0-6.2,7.2-12.7,21.4c-9.4-0.2-28.3,2.8-36.3,28.7C21.6,96.6,22.1,98.6,23.5,99.9z M90.5,43.1c4.1-5.4,11.8-6.4,17.2-2.3
	c5.4,4.1,6.4,11.8,2.3,17.2s-11.8,6.4-17.2,2.3C87.4,56.1,86.4,48.5,90.5,43.1z"/>
</svg>
