<?xml version="1.0" encoding="utf-8"?>
<!-- Generator: Adobe Illustrator 23.1.0, SVG Export Plug-In . SVG Version: 6.00 Build 0)  -->
<svg version="1.1" id="Layer_1" xmlns="http://www.w3.org/2000/svg" xmlns:xlink="http://www.w3.org/1999/xlink" x="0px" y="0px"
	 viewBox="0 0 150 150" style="enable-background:new 0 0 150 150;" xml:space="preserve">
<style type="text/css">
	.st0{fill:#C49A3B;}
</style>
<g>
	<g>
		<path class="st0" d="M77.69,136.23H16.46c-6.01,0-10.9-4.89-10.9-10.9c0-2.98,1.18-5.76,3.32-7.83c0.49-0.63,3.56-6.28,6.81-12.27
			c6.34-11.67,14.98-27.56,19.87-34.65V35.75h-2.74c-4.36,0-7.9-3.54-7.9-7.9c0-4.36,3.55-7.9,7.9-7.9h28.51
			c4.36,0,7.9,3.55,7.9,7.9c0,4.36-3.54,7.9-7.9,7.9h-2.74v34.86c4.77,6.97,13.17,22.5,19.34,33.9c3.19,5.91,6.5,12.02,7.09,12.76
			c2.23,1.95,3.57,4.93,3.57,8.06C88.59,131.34,83.7,136.23,77.69,136.23z M32.82,23.38c-2.46,0-4.47,2-4.47,4.47
			c0,2.46,2,4.47,4.47,4.47h4.52c0.49,0,0.95,0.21,1.28,0.57c0.33,0.36,0.48,0.85,0.43,1.34C39.02,34.51,39,34.81,39,35.11v36
			c0,0.35-0.11,0.7-0.31,0.99c-4.71,6.69-13.53,22.92-19.97,34.77c-5.48,10.08-6.83,12.5-7.44,13.1C9.8,121.39,9,123.29,9,125.33
			c0,4.12,3.35,7.47,7.47,7.47h61.23c4.12,0,7.47-3.35,7.47-7.47c0-2.14-0.92-4.18-2.53-5.6c-0.62-0.55-1.63-2.33-7.72-13.58
			c-6.26-11.58-14.84-27.45-19.44-34.02c-0.2-0.29-0.31-0.63-0.31-0.99V35.11c0-0.3-0.02-0.6-0.05-0.89
			c-0.05-0.49,0.1-0.97,0.43-1.34c0.33-0.36,0.79-0.57,1.28-0.57h4.52c2.46,0,4.47-2,4.47-4.47c0-2.46-2-4.47-4.47-4.47H32.82z"/>
		<path class="st0" d="M70.25,128.96H23.91c-4.78,0-8.67-3.89-8.67-8.67c0-2.37,0.94-4.58,2.64-6.23c0.34-0.47,2.72-4.86,5.03-9.1
			c1.38-2.55,2.93-5.4,4.53-8.29c0.3-0.55,0.88-0.89,1.5-0.89h36.18c0.63,0,1.21,0.34,1.51,0.89c1.46,2.67,2.89,5.31,4.18,7.69
			c2.32,4.29,4.72,8.73,5.27,9.52c1.8,1.64,2.83,3.97,2.83,6.41C78.91,125.07,75.03,128.96,70.25,128.96z M29.96,99.22
			c-1.42,2.58-2.79,5.11-4.03,7.39c-4.44,8.16-5.18,9.46-5.66,9.93c-1.03,1-1.6,2.33-1.6,3.76c0,2.89,2.35,5.23,5.23,5.23h46.34
			c2.89,0,5.23-2.35,5.23-5.23c0-1.5-0.65-2.93-1.77-3.93c-0.53-0.47-1.2-1.63-5.92-10.37c-1.14-2.11-2.39-4.42-3.68-6.78H29.96z"/>
		<path class="st0" d="M46.06,35.75H34.76c-0.95,0-1.72-0.77-1.72-1.72s0.77-1.72,1.72-1.72h11.29c0.95,0,1.72,0.77,1.72,1.72
			S47.01,35.75,46.06,35.75z"/>
	</g>
	<g>
		<path class="st0" d="M116.41,71.57c-7.79,0-14.12-6.33-14.12-14.12s6.33-14.12,14.12-14.12c7.79,0,14.12,6.33,14.12,14.12
			S124.19,71.57,116.41,71.57z M116.41,46.77c-5.89,0-10.68,4.79-10.68,10.68s4.79,10.68,10.68,10.68s10.68-4.79,10.68-10.68
			S122.3,46.77,116.41,46.77z"/>
		<path class="st0" d="M138.74,44.09c-4.47,0-8.11-3.64-8.11-8.11c0-4.47,3.64-8.11,8.11-8.11s8.11,3.64,8.11,8.11
			C146.85,40.45,143.22,44.09,138.74,44.09z M138.74,31.3c-2.58,0-4.68,2.1-4.68,4.68c0,2.58,2.1,4.68,4.68,4.68
			c2.58,0,4.68-2.1,4.68-4.68C143.42,33.4,141.32,31.3,138.74,31.3z"/>
		<path class="st0" d="M102.19,102.5c-4.47,0-8.11-3.64-8.11-8.11c0-4.47,3.64-8.11,8.11-8.11c4.47,0,8.11,3.64,8.11,8.11
			C110.3,98.86,106.66,102.5,102.19,102.5z M102.19,89.71c-2.58,0-4.68,2.1-4.68,4.68c0,2.58,2.1,4.68,4.68,4.68
			c2.58,0,4.68-2.1,4.68-4.68C106.86,91.81,104.77,89.71,102.19,89.71z"/>
		<path class="st0" d="M83.77,52.2c-4.47,0-8.11-3.64-8.11-8.11s3.64-8.11,8.11-8.11c4.47,0,8.11,3.64,8.11,8.11
			S88.24,52.2,83.77,52.2z M83.77,39.41c-2.58,0-4.68,2.1-4.68,4.68c0,2.58,2.1,4.68,4.68,4.68c2.58,0,4.68-2.1,4.68-4.68
			C88.44,41.51,86.34,39.41,83.77,39.41z"/>
		<path class="st0" d="M103.81,54.3c-0.24,0-0.48-0.05-0.71-0.16l-13.74-6.3c-0.86-0.4-1.24-1.42-0.85-2.28
			c0.4-0.86,1.41-1.24,2.28-0.85l13.74,6.3c0.86,0.4,1.24,1.42,0.85,2.28C105.08,53.93,104.46,54.3,103.81,54.3z"/>
		<path class="st0" d="M126.14,50.87c-0.44,0-0.88-0.17-1.21-0.5c-0.67-0.67-0.67-1.76,0-2.43l8.02-8.02c0.67-0.67,1.76-0.67,2.43,0
			c0.67,0.67,0.67,1.76,0,2.43l-8.02,8.02C127.02,50.7,126.58,50.87,126.14,50.87z"/>
		<path class="st0" d="M104.95,89.23c-0.21,0-0.42-0.04-0.63-0.12c-0.88-0.35-1.32-1.35-0.97-2.23l7.44-18.9
			c0.35-0.88,1.35-1.31,2.23-0.97c0.88,0.35,1.32,1.35,0.97,2.23l-7.44,18.9C106.29,88.82,105.64,89.23,104.95,89.23z"/>
	</g>
</g>
</svg>
