<?xml version="1.0" encoding="utf-8"?>
<!-- Generator: Adobe Illustrator 23.1.0, SVG Export Plug-In . SVG Version: 6.00 Build 0)  -->
<svg version="1.1" id="Layer_1" xmlns="http://www.w3.org/2000/svg" xmlns:xlink="http://www.w3.org/1999/xlink" x="0px" y="0px"
	 viewBox="0 0 150 150" style="enable-background:new 0 0 150 150;" xml:space="preserve">
<style type="text/css">
	.st0{fill:none;stroke:#C49A3B;stroke-miterlimit:10;}
</style>
<g>
	<g>
		
			<rect x="20.62" y="61.44" transform="matrix(0.9269 -0.3753 0.3753 0.9269 -29.2057 24.6866)" class="st0" width="56.32" height="51.78"/>
		<path class="st0" d="M84.94,101.6l-52.21,21.13c-0.47,0.19-0.99-0.04-1.18-0.5l-19.43-48c-0.19-0.47,0.04-0.99,0.5-1.18
			l52.21-21.13c0.47-0.19,0.99,0.04,1.18,0.5l19.43,48C85.63,100.88,85.4,101.41,84.94,101.6z M32.89,120.71l50.52-20.45
			L64.67,53.95L14.14,74.4L32.89,120.71z"/>
	</g>
	<g>
		
			<rect x="74.51" y="39.62" transform="matrix(0.9269 -0.3753 0.3753 0.9269 -17.0807 43.3146)" class="st0" width="56.32" height="51.78"/>
		<path class="st0" d="M138.83,79.78l-52.21,21.13c-0.47,0.19-0.99-0.04-1.18-0.5l-19.43-48c-0.19-0.47,0.04-0.99,0.5-1.18
			l52.21-21.13c0.47-0.19,0.99,0.04,1.18,0.5l19.43,48C139.52,79.07,139.29,79.6,138.83,79.78z M86.78,98.89l50.52-20.45
			l-18.75-46.31L68.03,52.58L86.78,98.89z"/>
	</g>
	<g>
		<g>
			<path class="st0" d="M84.39,99.04c-17.76-0.47-34.85,6.07-47.55,18.11c-6.46-15.95-12.92-31.91-19.38-47.86
				C29.9,56.6,46.73,49.41,64.22,49.22C70.95,65.83,77.67,82.44,84.39,99.04z"/>
			<path class="st0" d="M84.73,99.88c-0.11,0.05-0.24,0.07-0.36,0.07c-9.17-0.24-18.11,1.37-26.57,4.8
				c-7.59,3.07-14.43,7.47-20.33,13.07c-0.22,0.21-0.52,0.29-0.82,0.23c-0.29-0.06-0.54-0.27-0.65-0.55L16.62,69.63
				c-0.14-0.33-0.06-0.72,0.19-0.98c6.6-6.73,14.35-11.93,23.04-15.45c7.8-3.16,15.99-4.8,24.36-4.89c0.37,0,0.71,0.22,0.85,0.57
				L85.23,98.7c0.11,0.28,0.08,0.61-0.1,0.86C85.04,99.7,84.89,99.82,84.73,99.88z M57.12,103.06c8.26-3.35,16.97-5.01,25.91-4.95
				L63.62,50.14c-7.92,0.16-15.69,1.75-23.08,4.75c-8.27,3.35-15.67,8.26-22,14.61l18.66,46.08
				C43.04,110.26,49.74,106.05,57.12,103.06z"/>
		</g>
		<g>
			<path class="st0" d="M84.39,99.04c12.43-12.69,29.26-19.88,46.76-20.07c-6.46-15.95-12.92-31.91-19.38-47.86
				c-17.76-0.47-34.85,6.07-47.55,18.11C70.95,65.83,77.67,82.44,84.39,99.04z"/>
			<path class="st0" d="M84.73,99.88c-0.16,0.07-0.34,0.08-0.52,0.05c-0.3-0.06-0.55-0.27-0.67-0.55L63.38,49.57
				c-0.14-0.35-0.05-0.74,0.22-1c6.07-5.76,13.1-10.28,20.9-13.43c8.69-3.52,17.87-5.18,27.29-4.93c0.36,0.01,0.68,0.23,0.82,0.57
				l19.38,47.86c0.11,0.28,0.08,0.59-0.09,0.84c-0.17,0.25-0.44,0.4-0.75,0.4c-8.14,0.09-16.11,1.69-23.7,4.76
				c-8.46,3.42-16,8.48-22.42,15.04C84.95,99.77,84.85,99.83,84.73,99.88z M65.3,49.46l19.42,47.97
				c6.38-6.26,13.8-11.13,22.06-14.47c7.38-2.99,15.13-4.62,23.03-4.86l-18.66-46.08c-8.96-0.16-17.7,1.46-25.97,4.81
				C77.79,39.81,71.1,44.06,65.3,49.46z"/>
		</g>
	</g>
	<g>
		<path class="st0" d="M39.55,70.97c6.08-2.46,12.16-4.92,18.24-7.38"/>
		<path class="st0" d="M58.13,64.43l-18.24,7.38c-0.47,0.19-0.99-0.04-1.18-0.5c-0.19-0.47,0.04-0.99,0.5-1.18l18.24-7.38
			c0.47-0.19,0.99,0.04,1.18,0.5C58.82,63.71,58.6,64.24,58.13,64.43z"/>
	</g>
	<g>
		<path class="st0" d="M28.32,75.52c1.88-0.76,3.76-1.52,5.64-2.28"/>
		<path class="st0" d="M34.3,74.08l-5.64,2.28c-0.47,0.19-0.99-0.04-1.18-0.5c-0.19-0.47,0.04-0.99,0.5-1.18l5.64-2.28
			c0.47-0.19,0.99,0.04,1.18,0.5C34.99,73.36,34.76,73.89,34.3,74.08z"/>
	</g>
	<g>
		<path class="st0" d="M51.62,73.4c2.9-1.18,5.81-2.35,8.71-3.53"/>
		<path class="st0" d="M60.67,70.71l-8.71,3.53c-0.47,0.19-0.99-0.04-1.18-0.5c-0.19-0.47,0.04-0.99,0.5-1.18l8.71-3.53
			c0.47-0.19,0.99,0.04,1.18,0.5C61.36,70,61.14,70.53,60.67,70.71z"/>
	</g>
	<g>
		<path class="st0" d="M30.86,81.8c5.11-2.07,10.22-4.14,15.33-6.2"/>
		<path class="st0" d="M46.53,76.44l-15.32,6.2c-0.47,0.19-0.99-0.04-1.18-0.5c-0.19-0.47,0.04-0.99,0.5-1.18l15.33-6.2
			c0.47-0.19,0.99,0.04,1.18,0.5C47.22,75.72,46.99,76.25,46.53,76.44z"/>
	</g>
	<g>
		<path class="st0" d="M43.22,84.11c6.55-2.65,13.11-5.31,19.66-7.96"/>
		<path class="st0" d="M63.22,77l-19.66,7.96c-0.47,0.19-0.99-0.04-1.18-0.5c-0.19-0.47,0.04-0.99,0.5-1.18l19.66-7.96
			c0.47-0.19,0.99,0.04,1.18,0.5C63.91,76.28,63.68,76.81,63.22,77z"/>
	</g>
	<g>
		<path class="st0" d="M33.41,88.09c1.5-0.61,3-1.21,4.49-1.82"/>
		<path class="st0" d="M38.24,87.11l-4.49,1.82c-0.47,0.19-0.99-0.04-1.18-0.5c-0.19-0.47,0.04-0.99,0.5-1.18l4.49-1.82
			c0.47-0.19,0.99,0.04,1.18,0.5C38.93,86.39,38.71,86.92,38.24,87.11z"/>
	</g>
	<g>
		<path class="st0" d="M102.19,51.49c1.88-0.76,3.76-1.52,5.64-2.28"/>
		<path class="st0" d="M108.17,50.05l-5.64,2.28c-0.47,0.19-0.99-0.04-1.18-0.5c-0.19-0.47,0.04-0.99,0.5-1.18l5.64-2.28
			c0.47-0.19,0.99,0.04,1.18,0.5C108.86,49.34,108.64,49.87,108.17,50.05z"/>
	</g>
	<g>
		<path class="st0" d="M78.36,61.14c5.89-2.38,11.78-4.77,17.67-7.15"/>
		<path class="st0" d="M96.37,54.83L78.7,61.98c-0.47,0.19-0.99-0.04-1.18-0.5c-0.19-0.47,0.04-0.99,0.5-1.18l17.67-7.15
			c0.47-0.19,0.99,0.04,1.18,0.5C97.06,54.12,96.83,54.64,96.37,54.83z"/>
	</g>
	<g>
		<path class="st0" d="M92.42,62.76c5.98-2.42,11.97-4.85,17.95-7.27"/>
		<path class="st0" d="M110.71,56.34L92.76,63.6c-0.47,0.19-0.99-0.04-1.18-0.5c-0.19-0.47,0.04-0.99,0.5-1.18l17.95-7.27
			c0.47-0.19,0.99,0.04,1.18,0.5C111.4,55.62,111.18,56.15,110.71,56.34z"/>
	</g>
	<g>
		<path class="st0" d="M80.9,67.42c2.04-0.83,4.08-1.65,6.12-2.48"/>
		<path class="st0" d="M87.36,65.79l-6.12,2.48c-0.47,0.19-0.99-0.04-1.18-0.5c-0.19-0.47,0.04-0.99,0.5-1.18l6.12-2.48
			c0.47-0.19,0.99,0.04,1.18,0.5C88.05,65.07,87.83,65.6,87.36,65.79z"/>
	</g>
	<g>
		<path class="st0" d="M101.11,66.56c3.93-1.59,7.87-3.19,11.81-4.78"/>
		<path class="st0" d="M113.26,62.62l-11.81,4.78c-0.47,0.19-0.99-0.04-1.18-0.5c-0.19-0.47,0.04-0.99,0.5-1.18l11.81-4.78
			c0.47-0.19,0.99,0.04,1.18,0.5C113.95,61.9,113.72,62.43,113.26,62.62z"/>
	</g>
	<g>
		<path class="st0" d="M83.45,73.71c4.03-1.63,8.06-3.26,12.1-4.9"/>
		<path class="st0" d="M95.88,69.65l-12.1,4.9c-0.47,0.19-0.99-0.04-1.18-0.5c-0.19-0.47,0.04-0.99,0.5-1.18l12.1-4.9
			c0.47-0.19,0.99,0.04,1.18,0.5C96.57,68.93,96.35,69.46,95.88,69.65z"/>
	</g>
</g>
</svg>
