<?xml version="1.0" encoding="utf-8"?>
<!-- Generator: Adobe Illustrator 23.1.0, SVG Export Plug-In . SVG Version: 6.00 Build 0)  -->
<svg version="1.1" id="Layer_1" xmlns="http://www.w3.org/2000/svg" xmlns:xlink="http://www.w3.org/1999/xlink" x="0px" y="0px"
	 viewBox="0 0 150 150" style="enable-background:new 0 0 150 150;" xml:space="preserve">
<style type="text/css">
	.st0{opacity:0.14;}
	.st1{fill:#404B67;}
</style>
<g>
	<g>
		<g class="st0">
			<path class="st1" d="M-12.24,51.97c7,0.19-0.73,0.3-0.3,0.48c3.86,0,7.78,0.21,10.86,0.08c-0.44-0.17-2.76-0.23-5.09-0.19
				c1.48-0.39,4.29,0.06,8.49-0.2c-0.38,0.04-1.91,0.11-0.73,0.19c10.44-0.09,5.87,0.32,19.4,0.09c1.98,0.11,3.9,0.11,3.57,0.37
				c7.68-0.32,3.8-0.32,13.05-0.61c-0.36,0.15-3.38,0.5-3.33,0.82c13.07-0.45,13.35,0.07,21.69-0.28c-0.93-0.02-2.06-0.1-4.3-0.06
				c1.08-0.45,7,0.08,11.62-0.01l-0.44-0.39c4.27,0.06,11.69,0.32,17.07,0.04l-1.22-0.2c10.93,0.29,23.7,0.16,33.03,0.31l5-0.24
				c12.85,0.29-12.78,0.14-3.35,0.72c1.41-0.72,6.63,0.23,13.94-0.05c3.44-0.28-7.39-0.15-3.58-0.47c1.62,0.37,3.9,0.11,7.8,0.21
				c-0.84-0.34,8.13-0.05,5.74-0.43l13.69,0.64c2.2-0.2,6.17-0.16,9.08-0.11c-7.38,0.01,2.04,0.52-6.25,0.67
				c-12.05-0.16-32.25-0.28-47.34-0.1c-1.65-0.47-9.7,0.01-12.09-0.38c-0.36,0.15-1.5,0.28-1.86,0.43c-9.72-0.1,2.28-0.26-0.08-0.43
				c-4.27-0.06-7.71,0.23-7.3,0.4c-6.97,0.02-0.8-0.13-4.35-0.38l-4.54,0.52c-21.74-0.16-50.51-0.51-75.25-0.21l1.85-0.33"/>
			<path class="st1" d="M159.45,40.66c0.87,0,1.92,0.01,3.3,0.02C163.88,40.77,162.09,40.71,159.45,40.66z"/>
			<path class="st1" d="M192.52,40.25l0.04,0.17C192.26,40.37,192.15,40.32,192.52,40.25z"/>
			<path class="st1" d="M-12.25,104.41c7,0.19-0.72,0.3-0.29,0.48c3.86,0,7.78,0.21,10.86,0.08c-0.43-0.18-2.76-0.24-5.09-0.19
				c1.48-0.39,4.29,0.06,8.49-0.2c-0.38,0.04-1.91,0.11-0.73,0.19c10.44-0.09,5.87,0.32,19.4,0.1c1.98,0.11,3.9,0.11,3.57,0.37
				c7.68-0.33,3.8-0.32,13.05-0.61c-0.36,0.15-3.38,0.5-3.32,0.83c13.06-0.46,13.35,0.06,21.68-0.28c-0.93-0.01-2.06-0.1-4.3-0.05
				c1.08-0.45,6.99,0.08,11.62-0.01l-0.44-0.39c4.27,0.06,11.69,0.32,17.06,0.04l-1.21-0.19c10.92,0.29,23.69,0.16,33.02,0.3l5-0.24
				c12.85,0.3-12.78,0.13-3.35,0.71c1.4-0.71,6.63,0.24,13.94-0.05c3.44-0.28-7.39-0.15-3.58-0.47c1.62,0.36,3.9,0.11,7.8,0.21
				c-0.84-0.34,8.13-0.04,5.74-0.43l13.69,0.64c2.2-0.19,6.17-0.16,9.09-0.11c-7.39,0,2.03,0.51-6.27,0.67
				c-12.04-0.16-32.25-0.28-47.33-0.1c-1.65-0.47-9.7,0-12.09-0.39c-0.36,0.15-1.49,0.29-1.85,0.43c-9.72-0.1,2.28-0.25-0.08-0.43
				c-4.27-0.06-7.71,0.22-7.3,0.4c-6.96,0.02-0.8-0.13-4.34-0.39l-4.55,0.52c-21.73-0.16-50.5-0.52-75.25-0.22l1.85-0.32"/>
			<path class="st1" d="M159.46,95.11c0.87,0,1.91,0,3.29,0.02C163.88,95.21,162.09,95.15,159.46,95.11z"/>
			<path class="st1" d="M192.53,94.7l0.04,0.17C192.26,94.82,192.15,94.76,192.53,94.7z"/>
			<path class="st1" d="M-12.24,148.86c7,0.19-0.73,0.3-0.3,0.48c3.86,0,7.78,0.21,10.86,0.08c-0.44-0.17-2.76-0.24-5.09-0.19
				c1.48-0.4,4.29,0.05,8.49-0.2c-0.38,0.04-1.91,0.11-0.73,0.2c10.44-0.09,5.87,0.32,19.41,0.09c1.97,0.11,3.89,0.11,3.56,0.36
				c7.68-0.32,3.8-0.32,13.05-0.61c-0.36,0.15-3.38,0.5-3.33,0.82c13.07-0.46,13.35,0.06,21.69-0.28c-0.93-0.02-2.06-0.1-4.3-0.05
				c1.09-0.46,6.99,0.08,11.62-0.01l-0.44-0.39c4.27,0.06,11.69,0.32,17.07,0.04l-1.22-0.2c10.93,0.3,23.7,0.16,33.03,0.31l5-0.24
				c12.85,0.3-12.78,0.14-3.35,0.72c1.4-0.72,6.63,0.23,13.94-0.06c3.45-0.28-7.38-0.15-3.57-0.47c1.63,0.37,3.9,0.11,7.8,0.21
				c-0.84-0.34,8.13-0.05,5.74-0.44l13.69,0.64c2.2-0.2,6.17-0.16,9.08-0.11c-7.38,0,2.04,0.51-6.26,0.67
				c-12.04-0.16-32.25-0.28-47.33-0.1c-1.65-0.47-9.7,0-12.09-0.38c-0.36,0.15-1.5,0.28-1.86,0.44c-9.72-0.1,2.28-0.26-0.08-0.44
				c-4.28-0.06-7.71,0.22-7.3,0.4c-6.96,0.02-0.8-0.13-4.35-0.39l-4.54,0.52c-21.74-0.16-50.51-0.51-75.26-0.22l1.86-0.32"/>
			<path class="st1" d="M159.45,149.56c0.88,0,1.92,0,3.3,0.02C163.87,149.66,162.09,149.6,159.45,149.56z"/>
			<path class="st1" d="M192.52,149.15l0.04,0.17C192.26,149.26,192.15,149.21,192.52,149.15z"/>
		</g>
	</g>
</g>
</svg>
